# xmcd
#
# Track frame offsets:
# 150
# 18199
# 35278
# 50989
# 60037
# 80741
# 93577
# 113964
# 139595
# 163049
# 171392
# 187259
# 203029
# 215747
# 228351
#
# Disc length: 3260 seconds
#
# Revision: 1
# Processed by: cddbd v1.5.2PL0 Copyright (c) Steve Scherf et al.
# Submitted via: CedeCatalogueitor 2.6.0.6 http://personales.ya.com/cdcatalogueitor
#
DISCID=d40cba0f
DTITLE=Varios Artistas - Perros Felices 2005-2010
DYEAR=1900
DGENRE=
TTITLE0=Surfin' Bichos
TTITLE1=Mercromina
TTITLE2=Chucho
TTITLE3=Is
TTITLE4=Fernando Alfaro Y Los Alienistas
TTITLE5=Burrito Panza
TTITLE6=Travolta
TTITLE7=Gonzo
TTITLE8=Joaquin Pascual
TTITLE9=Segunda Vedette
TTITLE10=Campell
TTITLE11=Redneck Cassanovas
TTITLE12=Walkman
TTITLE13=Javier Fernandez
TTITLE14=Honky Tonky Sanchez
EXTD=
EXTT0=
EXTT1=
EXTT2=
EXTT3=
EXTT4=
EXTT5=
EXTT6=
EXTT7=
EXTT8=
EXTT9=
EXTT10=
EXTT11=
EXTT12=
EXTT13=
EXTT14=
PLAYORDER=
